<?xml version="1.0" encoding="UTF-8"?>
<svg width="50px" height="50px" viewBox="0 0 50 50" xmlns="http://www.w3.org/2000/svg" xmlns:xlink="http://www.w3.org/1999/xlink" version="1.1">
 <!-- Generated by Pixelmator Pro 2.1.2 -->
 <path id="Path" d="M27.132 4.262 C27.154 2.206 25.464 0.504 23.403 0.526 21.297 0.504 19.595 2.206 19.606 4.262 19.595 6.367 21.297 8.053 23.403 8.058 25.463 8.053 27.154 6.367 27.132 4.262 Z M37.974 24.892 L25.912 10.259 C25.285 9.329 21.79 8.938 20.312 10.125 L14.443 20.804 15.887 29.831 C17.355 32.188 20.267 29.803 19.449 28.515 L18.464 22.12 21 17 21 29 15 45 C13.958 48.494 18.969 50.365 20 47 L27 29 27 20 24.063 15.938 C23.917 15.764 23.939 15.501 24.119 15.35 24.298 15.204 24.556 15.227 24.702 15.4 L34.736 27.266 Z M33.359 45.19 L27.434 30.447 25 37 28.477 47.169 Z" fill="#ffffff" fill-opacity="1" stroke="none"/>
</svg>
